<?xml version="1.0" encoding="utf-8"?><svg xmlns="http://www.w3.org/2000/svg" xmlns:xlink="http://www.w3.org/1999/xlink"><symbol viewBox="0 0 203 23" id="hand" xmlns="http://www.w3.org/2000/svg">
    <path d="M0 20.4H20V0.4H0V20.4ZM37.7241 5H40.9641V19H37.7241V5ZM31.3641 19H28.1241V5H31.3641V19ZM37.9641 13.26H31.1241V10.52H37.9641V13.26ZM47.6564 10.64H54.3964V13.16H47.6564V10.64ZM47.8964 16.4H55.5164V19H44.6764V5H55.2564V7.6H47.8964V16.4ZM61.8377 19V13.28L62.5777 15.24L56.4177 5H59.8577L64.5777 12.86H62.5977L67.3377 5H70.5177L64.3577 15.24L65.0777 13.28V19H61.8377ZM70.7516 22.08L72.0716 17.28L72.5116 19.08C71.9382 19.08 71.4649 18.9133 71.0916 18.58C70.7316 18.2467 70.5516 17.7867 70.5516 17.2C70.5516 16.6133 70.7382 16.1467 71.1116 15.8C71.4849 15.4533 71.9449 15.28 72.4916 15.28C73.0516 15.28 73.5116 15.46 73.8716 15.82C74.2316 16.1667 74.4116 16.6267 74.4116 17.2C74.4116 17.3733 74.3982 17.5467 74.3716 17.72C74.3449 17.88 74.2916 18.08 74.2116 18.32C74.1449 18.5467 74.0316 18.84 73.8716 19.2L72.7316 22.08H70.7516ZM83.21 19V5H86.45V19H83.21ZM94.3966 19L100.637 5H103.837L110.097 19H106.697L101.577 6.64H102.857L97.7166 19H94.3966ZM97.5166 16L98.3766 13.54H105.577L106.457 16H97.5166ZM111.949 19V5H114.629L120.589 14.88H119.169L125.029 5H127.689L127.729 19H124.689L124.669 9.66H125.229L120.549 17.52H119.089L114.309 9.66H114.989V19H111.949ZM140.495 10.64H147.235V13.16H140.495V10.64ZM140.735 16.4H148.355V19H137.515V5H148.095V7.6H140.735V16.4ZM151.333 19V5H157.393C158.646 5 159.726 5.20667 160.633 5.62C161.539 6.02 162.239 6.6 162.733 7.36C163.226 8.12 163.473 9.02667 163.473 10.08C163.473 11.12 163.226 12.02 162.733 12.78C162.239 13.5267 161.539 14.1 160.633 14.5C159.726 14.9 158.646 15.1 157.393 15.1H153.133L154.573 13.68V19H151.333ZM160.233 19L156.733 13.92H160.193L163.733 19H160.233ZM154.573 14.04L153.133 12.52H157.213C158.213 12.52 158.959 12.3067 159.453 11.88C159.946 11.44 160.193 10.84 160.193 10.08C160.193 9.30667 159.946 8.70667 159.453 8.28C158.959 7.85333 158.213 7.64 157.213 7.64H153.133L154.573 6.1V14.04ZM166.44 19V5H169.68V19H166.44ZM180.102 19.24C179.022 19.24 178.016 19.0667 177.082 18.72C176.162 18.36 175.362 17.8533 174.682 17.2C174.002 16.5467 173.469 15.78 173.082 14.9C172.709 14.02 172.522 13.0533 172.522 12C172.522 10.9467 172.709 9.98 173.082 9.1C173.469 8.22 174.002 7.45333 174.682 6.8C175.376 6.14667 176.182 5.64667 177.102 5.3C178.022 4.94 179.029 4.76 180.122 4.76C181.336 4.76 182.429 4.97333 183.402 5.4C184.389 5.81333 185.216 6.42667 185.882 7.24L183.802 9.16C183.322 8.61333 182.789 8.20667 182.202 7.94C181.616 7.66 180.976 7.52 180.282 7.52C179.629 7.52 179.029 7.62667 178.482 7.84C177.936 8.05333 177.462 8.36 177.062 8.76C176.662 9.16 176.349 9.63333 176.122 10.18C175.909 10.7267 175.802 11.3333 175.802 12C175.802 12.6667 175.909 13.2733 176.122 13.82C176.349 14.3667 176.662 14.84 177.062 15.24C177.462 15.64 177.936 15.9467 178.482 16.16C179.029 16.3733 179.629 16.48 180.282 16.48C180.976 16.48 181.616 16.3467 182.202 16.08C182.789 15.8 183.322 15.38 183.802 14.82L185.882 16.74C185.216 17.5533 184.389 18.1733 183.402 18.6C182.429 19.0267 181.329 19.24 180.102 19.24ZM186.376 19L192.616 5H195.816L202.076 19H198.676L193.556 6.64H194.836L189.696 19H186.376ZM189.496 16L190.356 13.54H197.556L198.436 16H189.496Z"/>
</symbol><symbol viewBox="0 0 24 25" id="heart" xmlns="http://www.w3.org/2000/svg">
    <path fill-rule="evenodd" clip-rule="evenodd" d="M12.6924 7.58373C12.3055 7.95505 11.6945 7.95505 11.3076 7.58373L10.6152 6.91927C9.80477 6.14154 8.70994 5.66667 7.5 5.66667C5.01472 5.66667 3 7.68139 3 10.1667C3 12.5493 4.28979 14.5167 6.15176 16.1332C8.01532 17.7511 10.2434 18.8241 11.5746 19.3717C11.853 19.4862 12.147 19.4862 12.4254 19.3717C13.7566 18.8241 15.9847 17.7511 17.8482 16.1332C19.7102 14.5167 21 12.5493 21 10.1667C21 7.68139 18.9853 5.66667 16.5 5.66667C15.2901 5.66667 14.1952 6.14154 13.3848 6.91927L12.6924 7.58373ZM12 5.47624C10.8321 4.35548 9.24649 3.66667 7.5 3.66667C3.91015 3.66667 1 6.57682 1 10.1667C1 16.5349 7.97034 20.0517 10.8138 21.2214C11.5796 21.5364 12.4204 21.5364 13.1862 21.2214C16.0297 20.0517 23 16.5349 23 10.1667C23 6.57682 20.0899 3.66667 16.5 3.66667C14.7535 3.66667 13.1679 4.35548 12 5.47624Z"/>
</symbol><symbol viewBox="0 0 24 24" id="heart-line" xmlns="http://www.w3.org/2000/svg">
    <path d="M12.001 4.52853C14.35 2.42 17.98 2.49 20.2426 4.75736C22.5053 7.02472 22.583 10.637 20.4786 12.993L11.9999 21.485L3.52138 12.993C1.41705 10.637 1.49571 7.01901 3.75736 4.75736C6.02157 2.49315 9.64519 2.41687 12.001 4.52853ZM18.827 6.1701C17.3279 4.66794 14.9076 4.60701 13.337 6.01687L12.0019 7.21524L10.6661 6.01781C9.09098 4.60597 6.67506 4.66808 5.17157 6.17157C3.68183 7.66131 3.60704 10.0473 4.97993 11.6232L11.9999 18.6543L19.0201 11.6232C20.3935 10.0467 20.319 7.66525 18.827 6.1701Z"/>
</symbol><symbol viewBox="0 0 32 32" id="icon" xmlns="http://www.w3.org/2000/svg">
    <path d="M2.75 6.668L15.85 2V29.987L4.787 23.87L2.75 6.668Z"/>
    <path d="M15.85 2L29.25 6.588L27.063 23.788L15.85 29.988V2Z"/>
    <path d="M13.875 8.58594C13.9141 8.65104 13.9336 8.80078 13.9336 9.03516C13.9466 9.26953 13.9401 9.52344 13.9141 9.79688C13.888 10.0703 13.849 10.3372 13.7969 10.5977C13.7578 10.8451 13.7122 11.0078 13.6602 11.0859C13.6211 11.151 13.3802 11.1771 12.9375 11.1641C12.5078 11.138 11.8893 11.0729 11.082 10.9688C11.082 11.4766 11.0755 12.1276 11.0625 12.9219C11.0495 13.7161 11.0234 14.569 10.9844 15.4805C10.9583 16.3789 10.9258 17.2839 10.8867 18.1953C10.8607 19.1068 10.8281 19.9336 10.7891 20.6758C10.75 21.418 10.7109 22.0234 10.6719 22.4922C10.6328 22.9609 10.6003 23.2083 10.5742 23.2344C10.5221 23.2734 10.431 23.2539 10.3008 23.1758C10.1836 23.1107 10.0599 23.013 9.92969 22.8828C9.79948 22.7526 9.67578 22.6224 9.55859 22.4922C9.45443 22.349 9.38281 22.2253 9.34375 22.1211C9.33073 22.069 9.30469 21.8151 9.26562 21.3594C9.23958 20.9036 9.20703 20.3307 9.16797 19.6406C9.12891 18.9505 9.08333 18.1823 9.03125 17.3359C8.97917 16.4896 8.92708 15.6497 8.875 14.8164C8.82292 13.9831 8.76432 13.2018 8.69922 12.4727C8.64714 11.7435 8.60156 11.138 8.5625 10.6562C7.67708 10.5651 7.03906 10.474 6.64844 10.3828C6.25781 10.2917 6.03646 10.2201 5.98438 10.168C5.93229 10.1159 5.88021 10.0182 5.82812 9.875C5.76302 9.71875 5.71094 9.5625 5.67188 9.40625C5.63281 9.25 5.61328 9.10677 5.61328 8.97656C5.60026 8.83333 5.61328 8.74219 5.65234 8.70312C5.67839 8.67708 5.89974 8.65104 6.31641 8.625C6.72005 8.59896 7.22135 8.57292 7.82031 8.54688C8.41927 8.52083 9.0638 8.5013 9.75391 8.48828C10.457 8.47526 11.1081 8.46875 11.707 8.46875C12.306 8.46875 12.8073 8.48177 13.2109 8.50781C13.6276 8.52083 13.849 8.54688 13.875 8.58594Z"/>
    <path d="M20.457 13.8359C20.5039 13.8906 20.5469 13.9492 20.5859 14.0117C20.625 14.0664 20.6602 14.1445 20.6914 14.2461C20.7227 14.3398 20.7461 14.4648 20.7617 14.6211C20.7852 14.7773 20.7969 14.9805 20.7969 15.2305C20.7969 15.6289 20.7852 16.0312 20.7617 16.4375C20.7461 16.8359 20.7305 17.1875 20.7148 17.4922C20.707 17.7656 20.6992 18.0195 20.6914 18.2539C20.6836 18.4883 20.6758 18.6953 20.668 18.875C20.6602 19.0469 20.6484 19.1836 20.6328 19.2852C20.625 19.3867 20.6172 19.4414 20.6094 19.4492C20.5781 19.4727 20.5273 19.4648 20.457 19.4258C20.3945 19.3789 20.3242 19.3203 20.2461 19.25C20.1758 19.1797 20.1094 19.1055 20.0469 19.0273C19.9844 18.9492 19.9453 18.8867 19.9297 18.8398C19.9297 18.8008 19.918 18.6875 19.8945 18.5C19.707 18.6094 19.5 18.6875 19.2734 18.7344C19.0469 18.7734 18.8203 18.7891 18.5938 18.7812C18.375 18.7656 18.1719 18.7227 17.9844 18.6523C17.7969 18.582 17.6562 18.4883 17.5625 18.3711C17.5234 18.3242 17.4883 18.2539 17.457 18.1602C17.4336 18.0664 17.4102 17.9609 17.3867 17.8438C17.3711 17.7188 17.3555 17.5898 17.3398 17.457C17.3242 17.3164 17.3125 17.1875 17.3047 17.0703C17.2891 16.7656 17.3281 16.5039 17.4219 16.2852C17.5156 16.0586 17.6875 15.8906 17.9375 15.7812C18.0469 15.7344 18.1914 15.7109 18.3711 15.7109C18.5586 15.7031 18.7422 15.7109 18.9219 15.7344C19.1094 15.75 19.2773 15.7734 19.4258 15.8047C19.5742 15.8281 19.668 15.8477 19.707 15.8633C19.6758 15.4648 19.6523 15.1211 19.6367 14.832C19.6211 14.5352 19.5898 14.3438 19.543 14.2578C19.5039 14.2031 19.457 14.1484 19.4023 14.0938C19.3555 14.0547 19.293 14.0117 19.2148 13.9648C19.1367 13.918 19.043 13.8828 18.9336 13.8594C18.8477 13.8438 18.7695 13.8789 18.6992 13.9648C18.6367 14.043 18.5781 14.1836 18.5234 14.3867C18.4766 14.582 18.4492 14.8828 18.4414 15.2891C18.168 15.2969 17.957 15.2969 17.8086 15.2891C17.668 15.2734 17.5625 15.2578 17.4922 15.2422C17.4062 15.2266 17.3555 15.207 17.3398 15.1836C17.3242 15.1523 17.332 15.0391 17.3633 14.8438C17.3945 14.6406 17.4375 14.4219 17.4922 14.1875C17.5547 13.9531 17.625 13.7305 17.7031 13.5195C17.7891 13.3086 17.8789 13.1758 17.9727 13.1211C18.1602 13.0117 18.3828 12.9727 18.6406 13.0039C18.9062 13.0352 19.1641 13.1016 19.4141 13.2031C19.6641 13.3047 19.8867 13.418 20.082 13.543C20.2773 13.668 20.4023 13.7656 20.457 13.8359ZM19.7305 17.2578C19.7305 17.2188 19.7344 17.168 19.7422 17.1055C19.75 17.0352 19.7539 16.9648 19.7539 16.8945C19.7539 16.8242 19.75 16.7578 19.7422 16.6953C19.7422 16.6328 19.7344 16.5859 19.7188 16.5547C19.6953 16.5078 19.625 16.4688 19.5078 16.4375C19.3984 16.4062 19.2734 16.3867 19.1328 16.3789C18.9922 16.3633 18.8594 16.3594 18.7344 16.3672C18.6094 16.3672 18.5234 16.3828 18.4766 16.4141C18.4141 16.4531 18.3672 16.5078 18.3359 16.5781C18.3125 16.6484 18.2969 16.7578 18.2891 16.9062C18.2891 16.9766 18.293 17.0508 18.3008 17.1289C18.3086 17.207 18.3164 17.2852 18.3242 17.3633C18.3398 17.4336 18.3555 17.4961 18.3711 17.5508C18.3945 17.6055 18.418 17.6406 18.4414 17.6562C18.4961 17.6953 18.5898 17.7305 18.7227 17.7617C18.8633 17.7852 19.0039 17.793 19.1445 17.7852C19.2852 17.7695 19.4141 17.7227 19.5312 17.6445C19.6484 17.5664 19.7148 17.4375 19.7305 17.2578ZM24.0898 13.6133C24.1523 13.6523 24.2109 13.7305 24.2656 13.8477C24.3281 13.957 24.3828 14.0859 24.4297 14.2344C24.4844 14.375 24.5273 14.5273 24.5586 14.6914C24.5977 14.8555 24.6289 15.0078 24.6523 15.1484C24.6836 15.2891 24.7031 15.4102 24.7109 15.5117C24.7188 15.6055 24.7188 15.6641 24.7109 15.6875C24.6953 15.7188 24.6484 15.75 24.5703 15.7812C24.5 15.8125 24.3945 15.8477 24.2539 15.8867C24.1133 15.9258 23.918 15.9688 23.668 16.0156C23.6523 15.5859 23.6211 15.2617 23.5742 15.043C23.5273 14.8164 23.4766 14.6562 23.4219 14.5625C23.3594 14.4531 23.293 14.3984 23.2227 14.3984C23.1523 14.4297 23.0898 14.4688 23.0352 14.5156C22.9805 14.5547 22.9336 14.5977 22.8945 14.6445C22.8477 14.6992 22.8047 14.7578 22.7656 14.8203C22.75 14.8438 22.7344 14.8984 22.7188 14.9844C22.7031 15.0703 22.6875 15.1992 22.6719 15.3711C22.6719 15.4258 22.668 15.5391 22.6602 15.7109C22.6602 15.8828 22.6562 16.082 22.6484 16.3086C22.6484 16.5352 22.6445 16.7734 22.6367 17.0234C22.6367 17.2734 22.6328 17.5078 22.625 17.7266C22.625 17.9375 22.6211 18.1172 22.6133 18.2656C22.6133 18.4141 22.6094 18.5 22.6016 18.5234C22.5859 18.5625 22.5469 18.6172 22.4844 18.6875C22.4219 18.7578 22.3516 18.8242 22.2734 18.8867C22.1953 18.9414 22.1211 18.9883 22.0508 19.0273C21.9805 19.0586 21.9336 19.0547 21.9102 19.0156C21.8867 18.9922 21.8633 18.8906 21.8398 18.7109C21.8164 18.5312 21.7891 18.3125 21.7578 18.0547C21.7344 17.7891 21.707 17.5 21.6758 17.1875C21.6445 16.875 21.6172 16.5742 21.5938 16.2852C21.5703 15.9961 21.5508 15.7383 21.5352 15.5117C21.5195 15.2773 21.5078 15.1094 21.5 15.0078C21.4922 14.8594 21.4844 14.6953 21.4766 14.5156C21.4688 14.3359 21.4609 14.168 21.4531 14.0117C21.4531 13.8477 21.4531 13.707 21.4531 13.5898C21.4609 13.4648 21.4766 13.3906 21.5 13.3672C21.5156 13.3438 21.5664 13.3398 21.6523 13.3555C21.7461 13.3633 21.8438 13.3867 21.9453 13.4258C22.0547 13.457 22.1562 13.5 22.25 13.5547C22.3438 13.6094 22.4062 13.6602 22.4375 13.707C22.4609 13.7461 22.4844 13.8047 22.5078 13.8828C22.6562 13.8047 22.7969 13.7344 22.9297 13.6719C23.0703 13.6016 23.2031 13.5508 23.3281 13.5195C23.4609 13.4883 23.5898 13.4805 23.7148 13.4961C23.8398 13.5039 23.9648 13.543 24.0898 13.6133ZM27.6172 13.9766C27.625 14 27.625 14.0664 27.6172 14.1758C27.6094 14.2773 27.5938 14.3945 27.5703 14.5273C27.5547 14.6523 27.5352 14.7695 27.5117 14.8789C27.4883 14.9805 27.4688 15.043 27.4531 15.0664C27.375 15.0742 27.2969 15.0781 27.2188 15.0781C27.1406 15.0703 27.0664 15.0664 26.9961 15.0664H26.75C26.7422 15.582 26.7305 16.0938 26.7148 16.6016C26.6992 17.1094 26.6797 17.5664 26.6562 17.9727C26.6328 18.3711 26.6055 18.6953 26.5742 18.9453C26.5508 19.1953 26.5273 19.3242 26.5039 19.332C26.4492 19.3398 26.3867 19.3164 26.3164 19.2617C26.2461 19.207 26.1758 19.1406 26.1055 19.0625C26.043 18.9766 25.9844 18.8906 25.9297 18.8047C25.8828 18.7109 25.8555 18.6289 25.8477 18.5586C25.8086 18.082 25.7734 17.6289 25.7422 17.1992C25.7109 16.7617 25.6875 16.375 25.6719 16.0391C25.6406 15.6484 25.6211 15.2852 25.6133 14.9492C25.5273 14.9414 25.4414 14.9297 25.3555 14.9141C25.2773 14.8984 25.1953 14.8828 25.1094 14.8672C25.0312 14.8516 24.9492 14.8359 24.8633 14.8203C24.8477 14.8047 24.8281 14.7695 24.8047 14.7148C24.7812 14.6523 24.7578 14.5859 24.7344 14.5156C24.7188 14.4453 24.7031 14.3789 24.6875 14.3164C24.6719 14.2461 24.6641 14.1953 24.6641 14.1641C24.6641 14.1406 24.75 14.1172 24.9219 14.0938C25.1016 14.0703 25.3203 14.0508 25.5781 14.0352C25.5625 13.6211 25.5508 13.2617 25.543 12.957C25.543 12.6445 25.5547 12.4336 25.5781 12.3242C25.6016 12.1758 25.6641 12.0352 25.7656 11.9023C25.875 11.7617 25.9883 11.6406 26.1055 11.5391C26.2305 11.4375 26.3438 11.3633 26.4453 11.3164C26.5547 11.2617 26.625 11.2461 26.6562 11.2695C26.6797 11.2852 26.6992 11.3672 26.7148 11.5156C26.7305 11.6562 26.7422 11.8477 26.75 12.0898C26.7578 12.332 26.7617 12.6172 26.7617 12.9453C26.7617 13.2656 26.7617 13.6055 26.7617 13.9648C26.9961 13.9492 27.1953 13.9453 27.3594 13.9531C27.5234 13.9531 27.6094 13.9609 27.6172 13.9766Z"/>
</symbol><symbol viewBox="0 0 24 24" id="id-card-line" xmlns="http://www.w3.org/2000/svg">
    <path d="M3 6H21V18H3V6ZM2 4C1.44772 4 1 4.44772 1 5V19C1 19.5523 1.44772 20 2 20H22C22.5523 20 23 19.5523 23 19V5C23 4.44772 22.5523 4 22 4H2ZM13 8H19V10H13V8ZM18 12H13V14H18V12ZM10.5 10C10.5 11.3807 9.38071 12.5 8 12.5C6.61929 12.5 5.5 11.3807 5.5 10C5.5 8.61929 6.61929 7.5 8 7.5C9.38071 7.5 10.5 8.61929 10.5 10ZM8 13.5C6.067 13.5 4.5 15.067 4.5 17H11.5C11.5 15.067 9.933 13.5 8 13.5Z"/>
</symbol><symbol viewBox="0 0 24 24" id="search" xmlns="http://www.w3.org/2000/svg">
    <path d="M18.5 18.5L22 22M21 11.5C21 6.25329 16.7467 2 11.5 2C6.25329 2 2 6.25329 2 11.5C2 16.7467 6.25329 21 11.5 21C16.7467 21 21 16.7467 21 11.5Z" stroke-width="1.5" stroke-linecap="round" stroke-linejoin="round"/>
</symbol><symbol viewBox="0 0 24 24" id="search-line" xmlns="http://www.w3.org/2000/svg">
    <path d="M18.031 16.6168L22.3137 20.8995L20.8995 22.3137L16.6168 18.031C15.0769 19.263 13.124 20 11 20C6.032 20 2 15.968 2 11C2 6.032 6.032 2 11 2C15.968 2 20 6.032 20 11C20 13.124 19.263 15.0769 18.031 16.6168ZM16.0247 15.8748C17.2475 14.6146 18 12.8956 18 11C18 7.1325 14.8675 4 11 4C7.1325 4 4 7.1325 4 11C4 14.8675 7.1325 18 11 18C12.8956 18 14.6146 17.2475 15.8748 16.0247L16.0247 15.8748Z"/>
</symbol><symbol viewBox="0 0 24 24" id="user" xmlns="http://www.w3.org/2000/svg">
    <path d="M18.5588 19.5488C17.5654 16.8918 15.0036 15 12 15C8.99638 15 6.4346 16.8918 5.44117 19.5488M18.5588 19.5488C20.6672 17.7154 22 15.0134 22 12C22 6.47715 17.5228 2 12 2C6.47715 2 2 6.47715 2 12C2 15.0134 3.33285 17.7154 5.44117 19.5488M18.5588 19.5488C16.8031 21.0756 14.5095 22 12 22C9.49052 22 7.19694 21.0756 5.44117 19.5488M15 9C15 10.6569 13.6569 12 12 12C10.3431 12 9 10.6569 9 9C9 7.34315 10.3431 6 12 6C13.6569 6 15 7.34315 15 9Z" stroke-width="1.5" stroke-linejoin="round"/>
</symbol><symbol viewBox="0 0 24 24" id="user-star-line" xmlns="http://www.w3.org/2000/svg">
    <path d="M12 14V16C8.68629 16 6 18.6863 6 22H4C4 17.5817 7.58172 14 12 14ZM12 13C8.685 13 6 10.315 6 7C6 3.685 8.685 1 12 1C15.315 1 18 3.685 18 7C18 10.315 15.315 13 12 13ZM12 11C14.21 11 16 9.21 16 7C16 4.79 14.21 3 12 3C9.79 3 8 4.79 8 7C8 9.21 9.79 11 12 11ZM18 21.5L15.0611 23.0451L15.6224 19.7725L13.2447 17.4549L16.5305 16.9775L18 14L19.4695 16.9775L22.7553 17.4549L20.3776 19.7725L20.9389 23.0451L18 21.5Z"/>
</symbol><symbol id="website" enable-background="new 0 0 497 497" viewBox="0 0 497 497" xmlns="http://www.w3.org/2000/svg">
    <g>
        <path d="m497 128.5v312c0 11.046-8.954 20-20 20h-457c-11.046 0-20-8.954-20-20v-312z"/>
        <g>
            <path d="m290.498 294.5c0-23.196-18.804-42-42-42-7.031 0-13.659 1.728-19.482 4.782-13.386 7.021-19.327 21.053-19.327 37.218 0 23.196 15.613 36.457 38.809 36.457 16.214 0 30.282-3.645 37.282-17.099 3.014-5.792 4.718-12.376 4.718-19.358z"/>
            <path d="m286.468 312.47c-6.73 14.21-21.2 24.03-37.97 24.03-23.2 0-42-18.8-42-42 0-16.77 9.82-31.24 24.03-37.97-2.59 5.45-4.03 11.54-4.03 17.97 0 23.2 18.8 42 42 42 6.43 0 12.52-1.44 17.97-4.03z"/>
        </g>
        <g>
            <path d="m429.496 294.5c0-23.196-18.804-42-42-42-7.031 0-13.659 1.728-19.482 4.782-13.386 7.021-19.327 21.053-19.327 37.218 0 23.196 15.613 36.457 38.809 36.457 16.214 0 30.282-3.645 37.282-17.099 3.014-5.792 4.718-12.376 4.718-19.358z"/>
            <path d="m425.466 312.47c-6.73 14.21-21.2 24.03-37.97 24.03-23.2 0-42-18.8-42-42 0-16.77 9.82-31.24 24.03-37.97-2.59 5.45-4.03 11.54-4.03 17.97 0 23.2 18.8 42 42 42 6.43 0 12.52-1.44 17.97-4.03z"/>
        </g>
        <path d="m497 148.5v-20l-276.011-12.798-220.989 12.798v20 292c0 11.046 8.954 20 20 20h15c-8.28 0-15-6.72-15-15v-291c0-3.314 2.686-6 6-6z"/>
        <g>
            <path d="m497 56.5v72.5h-497v-72.5c0-11.046 8.954-20 20-20h457c11.046 0 20 8.954 20 20z"/>
            <g>
                <path d="m227.758 108.5c-8.255 0-14.947-6.716-14.947-15s6.692-15 14.947-15h208.315c8.255 0 14.947 6.716 14.947 15s-6.692 15-14.947 15z"/>
                <ellipse cx="160.869" cy="93.5" rx="14.947" ry="15"/>
                <path d="m171.361 104.184 12.874-12.869-13.139 1.179z"/>
                <path d="m150.592 82.608 12.562-12.516-2.693 10.408z"/>
                <ellipse cx="98.034" cy="93.5" rx="14.947" ry="15"/>
                <path d="m108.553 104.157 12.382-12.499-12.674.836z"/>
                <path d="m87.757 82.608 12.371-12.459-2.502 10.351z"/>
                <ellipse cx="32.947" cy="93.5" rx="14.947" ry="15"/>
                <path d="m43.769 103.846 12.721-13.186-13.139 1.381z"/>
                <path d="m22.67 82.608 11.622-12.038-1.753 9.93z"/>
            </g>
            <ellipse cx="173.849" cy="80.5" rx="14.947" ry="15"/>
            <path d="m217.514 82.577 12.971-12.991-3.025 14.276z"/>
            <path d="m446.83 103.915 13.149-13.179-10.185 3.381z"/>
            <ellipse cx="110.946" cy="80.5" rx="14.947" ry="15"/>
            <ellipse cx="45.495" cy="80.5" rx="14.947" ry="15"/>
            <path d="m240.737 95.5c-8.255 0-14.947-6.716-14.947-15s6.692-15 14.947-15h208.315c8.255 0 14.947 6.716 14.947 15s-6.692 15-14.947 15z"/>
        </g>
        <path d="m135.893 215 226.628 2c5.523 0 10-4.477 10-10l3.479-7v-30c0-5.523-4.477-10-10-10h-224l-6.107 5c-5.523 0-10 4.477-10 10v30c0 5.523 4.477 10 10 10z"/>
        <path d="m376 200v10c0 5.523-4.477 10-10 10h-234c-5.523 0-10-4.477-10-10v-40c0-5.523 4.477-10 10-10h10v33c0 3.866 3.134 7 7 7z"/>
        <g>
            <path d="m151.5 294.5c0-23.196-18.804-42-42-42-7.031 0-13.659 1.728-19.482 4.782-13.386 7.021-19.327 21.053-19.327 37.218 0 23.196 15.613 36.457 38.809 36.457 16.214 0 30.282-3.645 37.282-17.099 3.014-5.792 4.718-12.376 4.718-19.358z"/>
            <path d="m147.47 312.47c-6.73 14.21-21.2 24.03-37.97 24.03-23.2 0-42-18.8-42-42 0-16.77 9.82-31.24 24.03-37.97-2.59 5.45-4.03 11.54-4.03 17.97 0 23.2 18.8 42 42 42 6.43 0 12.52-1.44 17.97-4.03z"/>
        </g>
        <g>
            <g>
                <path d="m149.5 374h-70c-4.142 0-7.5-3.358-7.5-7.5s3.358-7.5 7.5-7.5h70c4.142 0 7.5 3.358 7.5 7.5s-3.358 7.5-7.5 7.5z"/>
            </g>
            <g>
                <path d="m149.5 404h-80c-4.142 0-7.5-3.358-7.5-7.5s3.358-7.5 7.5-7.5h80c4.142 0 7.5 3.358 7.5 7.5s-3.358 7.5-7.5 7.5z"/>
            </g>
            <g>
                <path d="m149.5 434h-80c-4.142 0-7.5-3.358-7.5-7.5s3.358-7.5 7.5-7.5h80c4.142 0 7.5 3.358 7.5 7.5s-3.358 7.5-7.5 7.5z"/>
            </g>
        </g>
        <g>
            <g>
                <path d="m288.5 374h-70c-4.142 0-7.5-3.358-7.5-7.5s3.358-7.5 7.5-7.5h70c4.143 0 7.5 3.358 7.5 7.5s-3.357 7.5-7.5 7.5z"/>
            </g>
            <g>
                <path d="m288.5 404h-80c-4.142 0-7.5-3.358-7.5-7.5s3.358-7.5 7.5-7.5h80c4.143 0 7.5 3.358 7.5 7.5s-3.357 7.5-7.5 7.5z"/>
            </g>
            <g>
                <path d="m288.5 434h-80c-4.142 0-7.5-3.358-7.5-7.5s3.358-7.5 7.5-7.5h80c4.143 0 7.5 3.358 7.5 7.5s-3.357 7.5-7.5 7.5z"/>
            </g>
        </g>
        <g>
            <g>
                <path d="m427.5 374h-70c-4.143 0-7.5-3.358-7.5-7.5s3.357-7.5 7.5-7.5h70c4.143 0 7.5 3.358 7.5 7.5s-3.357 7.5-7.5 7.5z"/>
            </g>
            <g>
                <path d="m427.5 404h-80c-4.143 0-7.5-3.358-7.5-7.5s3.357-7.5 7.5-7.5h80c4.143 0 7.5 3.358 7.5 7.5s-3.357 7.5-7.5 7.5z"/>
            </g>
            <g>
                <path d="m427.5 434h-80c-4.143 0-7.5-3.358-7.5-7.5s3.357-7.5 7.5-7.5h80c4.143 0 7.5 3.358 7.5 7.5s-3.357 7.5-7.5 7.5z"/>
            </g>
        </g>
    </g>
</symbol></svg>