<?xml version="1.0" encoding="utf-8"?><svg viewBox="0 0 512 512" xmlns="http://www.w3.org/2000/svg" xmlns:xlink="http://www.w3.org/1999/xlink"><style>:root>svg{display:none}:root>svg:target{display:block}</style><svg fill="none" viewBox="0 0 203 23" id="hand" xmlns="http://www.w3.org/2000/svg">
    <path d="M0 20.4h20V.4H0v20ZM37.724 5h3.24v14h-3.24V5Zm-6.36 14h-3.24V5h3.24v14Zm6.6-5.74h-6.84v-2.74h6.84v2.74Zm9.692-2.62h6.74v2.52h-6.74v-2.52Zm.24 5.76h7.62V19h-10.84V5h10.58v2.6h-7.36v8.8ZM61.838 19v-5.72l.74 1.96L56.418 5h3.44l4.72 7.86h-1.98L67.338 5h3.18l-6.16 10.24.72-1.96V19h-3.24Zm8.914 3.08 1.32-4.8.44 1.8c-.574 0-1.047-.167-1.42-.5-.36-.333-.54-.793-.54-1.38 0-.587.186-1.053.56-1.4.373-.347.833-.52 1.38-.52.56 0 1.02.18 1.38.54.36.347.54.807.54 1.38 0 .173-.014.347-.04.52-.027.16-.08.36-.16.6-.067.227-.18.52-.34.88l-1.14 2.88h-1.98ZM83.21 19V5h3.24v14h-3.24Zm11.187 0 6.24-14h3.2l6.26 14h-3.4l-5.12-12.36h1.28L97.717 19h-3.32Zm3.12-3 .86-2.46h7.2l.88 2.46h-8.94Zm14.432 3V5h2.68l5.96 9.88h-1.42l5.86-9.88h2.66l.04 14h-3.04l-.02-9.34h.56l-4.68 7.86h-1.46l-4.78-7.86h.68V19h-3.04Zm28.546-8.36h6.74v2.52h-6.74v-2.52Zm.24 5.76h7.62V19h-10.84V5h10.58v2.6h-7.36v8.8Zm10.598 2.6V5h6.06c1.253 0 2.333.207 3.24.62.906.4 1.606.98 2.1 1.74.493.76.74 1.667.74 2.72 0 1.04-.247 1.94-.74 2.7-.494.747-1.194 1.32-2.1 1.72-.907.4-1.987.6-3.24.6h-4.26l1.44-1.42V19h-3.24Zm8.9 0-3.5-5.08h3.46l3.54 5.08h-3.5Zm-5.66-4.96-1.44-1.52h4.08c1 0 1.746-.213 2.24-.64.493-.44.74-1.04.74-1.8 0-.773-.247-1.373-.74-1.8-.494-.427-1.24-.64-2.24-.64h-4.08l1.44-1.54v7.94ZM166.44 19V5h3.24v14h-3.24Zm13.662.24a8.607 8.607 0 0 1-3.02-.52 7.22 7.22 0 0 1-2.4-1.52 7.142 7.142 0 0 1-1.6-2.3c-.373-.88-.56-1.847-.56-2.9s.187-2.02.56-2.9c.387-.88.92-1.647 1.6-2.3a7.187 7.187 0 0 1 2.42-1.5c.92-.36 1.927-.54 3.02-.54 1.214 0 2.307.213 3.28.64a6.298 6.298 0 0 1 2.48 1.84l-2.08 1.92c-.48-.547-1.013-.953-1.6-1.22a4.395 4.395 0 0 0-1.92-.42c-.653 0-1.253.107-1.8.32-.546.213-1.02.52-1.42.92-.4.4-.713.873-.94 1.42a4.975 4.975 0 0 0-.32 1.82c0 .667.107 1.273.32 1.82.227.547.54 1.02.94 1.42.4.4.874.707 1.42.92.547.213 1.147.32 1.8.32a4.58 4.58 0 0 0 1.92-.4c.587-.28 1.12-.7 1.6-1.26l2.08 1.92a6.477 6.477 0 0 1-2.48 1.86c-.973.427-2.073.64-3.3.64Zm6.274-.24 6.24-14h3.2l6.26 14h-3.4l-5.12-12.36h1.28L189.696 19h-3.32Zm3.12-3 .86-2.46h7.2l.88 2.46h-8.94Z" fill="#FEFAEE"/>
</svg><svg fill="none" viewBox="0 0 24 25" id="heart" xmlns="http://www.w3.org/2000/svg">
    <path fill-rule="evenodd" clip-rule="evenodd" d="M12.692 7.584a1 1 0 0 1-1.384 0l-.693-.665A4.5 4.5 0 0 0 3 10.166c0 2.383 1.29 4.35 3.152 5.967 1.863 1.618 4.091 2.691 5.423 3.239.278.114.572.114.85 0 1.332-.548 3.56-1.62 5.423-3.239C19.71 14.517 21 12.55 21 10.167a4.5 4.5 0 0 0-7.615-3.248l-.693.665ZM12 5.476a6.5 6.5 0 0 0-11 4.69c0 6.369 6.97 9.886 9.814 11.055a3.096 3.096 0 0 0 2.372 0C16.03 20.051 23 16.535 23 10.167a6.5 6.5 0 0 0-11-4.69Z" fill="#141718"/>
</svg><svg fill="none" viewBox="0 0 24 24" id="heart-line" xmlns="http://www.w3.org/2000/svg">
    <path d="M12.001 4.529a5.998 5.998 0 0 1 8.242.228 6 6 0 0 1 .236 8.236l-8.48 8.492-8.478-8.492a6 6 0 0 1 8.48-8.464Zm6.826 1.641a3.998 3.998 0 0 0-5.49-.153l-1.335 1.198-1.336-1.197a4 4 0 0 0-5.686 5.605L12 18.654l7.02-7.03a4 4 0 0 0-.193-5.454Z" fill="#000"/>
</svg><svg fill="none" viewBox="0 0 32 32" id="icon" xmlns="http://www.w3.org/2000/svg">
    <path d="M2.75 6.668 15.85 2v27.987L4.787 23.87 2.75 6.668Z" fill="#2B2B2B"/>
    <path d="m15.85 2 13.4 4.588-2.187 17.2-11.213 6.2V2Z" fill="#46856E"/>
    <path d="M13.875 8.586c.04.065.059.215.059.45.013.234.006.487-.02.76-.026.274-.065.541-.117.802-.04.247-.085.41-.137.488-.039.065-.28.091-.723.078a29.78 29.78 0 0 1-1.855-.195c0 .508-.007 1.159-.02 1.953-.012.794-.039 1.647-.078 2.558-.026.899-.058 1.804-.097 2.715-.026.912-.059 1.739-.098 2.48-.039.743-.078 1.348-.117 1.817-.04.469-.072.716-.098.742-.052.04-.143.02-.273-.058a1.729 1.729 0 0 1-.371-.293c-.13-.13-.254-.26-.371-.39a1.65 1.65 0 0 1-.215-.372c-.013-.052-.04-.306-.078-.762l-.098-1.718c-.04-.69-.085-1.459-.137-2.305l-.156-2.52a88.53 88.53 0 0 0-.176-2.343c-.052-.73-.097-1.335-.136-1.817-.886-.09-1.524-.182-1.915-.273-.39-.091-.612-.163-.664-.215a.838.838 0 0 1-.156-.293 3.298 3.298 0 0 1-.156-.469c-.04-.156-.059-.3-.059-.43-.013-.143 0-.234.04-.273.025-.026.247-.052.663-.078a78.93 78.93 0 0 1 3.437-.137c.704-.013 1.355-.02 1.954-.02s1.1.014 1.504.04c.417.013.638.039.664.078ZM20.457 13.836c.047.055.09.113.129.176.039.054.074.133.105.234.032.094.055.219.07.375.024.156.036.36.036.61 0 .398-.012.8-.035 1.207-.016.398-.032.75-.047 1.054a161.408 161.408 0 0 1-.047 1.383c-.008.172-.02.309-.035.41a.573.573 0 0 1-.024.164c-.03.024-.082.016-.152-.023a3.131 3.131 0 0 1-.21-.176 2.688 2.688 0 0 1-.2-.223.685.685 0 0 1-.117-.187c0-.04-.012-.152-.035-.34-.188.11-.395.188-.622.234a3.315 3.315 0 0 1-.68.047 2.162 2.162 0 0 1-.609-.129.953.953 0 0 1-.422-.28.66.66 0 0 1-.105-.212 7.047 7.047 0 0 1-.07-.316 60.258 60.258 0 0 1-.047-.387 8.872 8.872 0 0 1-.035-.387 1.753 1.753 0 0 1 .117-.785.933.933 0 0 1 .515-.504c.11-.047.254-.07.434-.07.188-.008.371 0 .55.023.188.016.356.04.505.07.148.024.242.044.281.06a43.565 43.565 0 0 1-.07-1.032c-.016-.297-.047-.488-.094-.574a1.308 1.308 0 0 0-.14-.164 1.505 1.505 0 0 0-.188-.13.917.917 0 0 0-.281-.105c-.086-.015-.165.02-.235.106-.062.078-.12.219-.176.422-.046.195-.074.496-.082.902a8.372 8.372 0 0 1-.632 0 3.254 3.254 0 0 1-.317-.047c-.086-.015-.137-.035-.152-.058-.016-.032-.008-.145.023-.34.032-.203.075-.422.13-.656.062-.235.132-.458.21-.668.086-.211.176-.344.27-.399.187-.11.41-.148.668-.117.265.031.523.098.773.2.25.1.473.214.668.339.195.125.32.223.375.293Zm-.727 3.422c0-.04.004-.09.012-.152a1.913 1.913 0 0 0 0-.41.327.327 0 0 0-.023-.141c-.024-.047-.094-.086-.211-.117a1.713 1.713 0 0 0-.375-.06 2.311 2.311 0 0 0-.399-.01c-.125 0-.21.015-.257.046a.361.361 0 0 0-.141.164c-.023.07-.04.18-.047.328 0 .07.004.145.012.223l.023.234c.016.07.031.133.047.188.024.055.047.09.07.105.055.04.149.075.282.106.14.023.28.031.422.023a.857.857 0 0 0 .386-.14c.117-.079.184-.207.2-.387Zm4.36-3.645a.537.537 0 0 1 .176.235c.062.109.117.238.164.386.054.141.097.293.129.457.039.164.07.317.093.457.032.141.051.262.059.364a.597.597 0 0 1 0 .175c-.016.032-.063.063-.14.094-.071.031-.177.067-.317.106a7.37 7.37 0 0 1-.586.129 6.056 6.056 0 0 0-.094-.973c-.047-.227-.097-.387-.152-.48-.063-.11-.129-.165-.2-.165a.761.761 0 0 0-.187.118.751.751 0 0 0-.14.129c-.047.054-.09.113-.13.175a.53.53 0 0 0-.046.164 4.71 4.71 0 0 0-.047.387c0 .055-.004.168-.012.34 0 .172-.004.371-.012.598 0 .226-.003.464-.011.714 0 .25-.004.485-.012.704 0 .21-.004.39-.012.539 0 .148-.004.234-.011.257a.657.657 0 0 1-.118.165c-.062.07-.132.136-.21.199a2.534 2.534 0 0 1-.223.14c-.07.032-.117.028-.14-.011-.024-.024-.048-.125-.071-.305-.024-.18-.05-.398-.082-.656-.024-.266-.051-.555-.082-.867a47.646 47.646 0 0 1-.14-1.676 59.511 59.511 0 0 0-.036-.504 54.329 54.329 0 0 1-.023-.492l-.024-.504v-.422c.008-.125.024-.2.047-.223.016-.023.066-.027.152-.012.094.008.192.032.293.07.11.032.211.075.305.13a.575.575 0 0 1 .188.152c.023.04.046.098.07.176.148-.078.289-.149.422-.211.14-.07.273-.121.398-.152a1.09 1.09 0 0 1 .387-.024c.125.008.25.047.375.117Zm3.527.364a.763.763 0 0 1 0 .199 3.654 3.654 0 0 1-.047.351 4.088 4.088 0 0 1-.058.352.74.74 0 0 1-.059.187 2.356 2.356 0 0 1-.234.012 2.247 2.247 0 0 0-.223-.012h-.246a97.32 97.32 0 0 1-.035 1.536 51.19 51.19 0 0 1-.059 1.37c-.023.4-.05.723-.082.973-.023.25-.047.38-.07.387-.055.008-.117-.016-.188-.07a1.65 1.65 0 0 1-.21-.2 5.037 5.037 0 0 1-.176-.257.754.754 0 0 1-.082-.246c-.04-.477-.075-.93-.106-1.36a47.063 47.063 0 0 1-.07-1.16c-.031-.39-.05-.754-.059-1.09a2.916 2.916 0 0 1-.258-.035c-.078-.016-.16-.031-.246-.047l-.246-.047a.38.38 0 0 1-.058-.105 5.526 5.526 0 0 1-.07-.2 7.804 7.804 0 0 0-.047-.199.803.803 0 0 1-.024-.152c0-.023.086-.047.258-.07.18-.024.398-.043.656-.059a91.038 91.038 0 0 1-.035-1.078c0-.313.012-.523.035-.633a.93.93 0 0 1 .188-.422c.109-.14.222-.261.34-.363.124-.101.238-.176.34-.223.109-.054.179-.07.21-.046.024.015.043.097.059.246.015.14.027.332.035.574.008.242.012.527.012.855v1.02c.234-.016.433-.02.597-.012.164 0 .25.008.258.024Z" fill="#FFFAEF"/>
</svg><svg fill="none" viewBox="0 0 24 24" id="id-card-line" xmlns="http://www.w3.org/2000/svg">
    <path d="M3 6h18v12H3V6ZM2 4a1 1 0 0 0-1 1v14a1 1 0 0 0 1 1h20a1 1 0 0 0 1-1V5a1 1 0 0 0-1-1H2Zm11 4h6v2h-6V8Zm5 4h-5v2h5v-2Zm-7.5-2a2.5 2.5 0 1 1-5 0 2.5 2.5 0 0 1 5 0ZM8 13.5A3.5 3.5 0 0 0 4.5 17h7A3.5 3.5 0 0 0 8 13.5Z" fill="#000"/>
</svg><svg fill="none" viewBox="0 0 24 24" id="search" xmlns="http://www.w3.org/2000/svg">
    <path d="M18.5 18.5 22 22m-1-10.5a9.5 9.5 0 1 0-19 0 9.5 9.5 0 0 0 19 0Z" stroke="#141718" stroke-width="1.5" stroke-linecap="round" stroke-linejoin="round"/>
</svg><svg fill="none" viewBox="0 0 24 24" id="search-line" xmlns="http://www.w3.org/2000/svg">
    <path d="m18.031 16.617 4.283 4.282-1.415 1.415-4.282-4.283A8.96 8.96 0 0 1 11 20c-4.968 0-9-4.032-9-9s4.032-9 9-9 9 4.032 9 9a8.96 8.96 0 0 1-1.969 5.617Zm-2.006-.742A6.977 6.977 0 0 0 18 11c0-3.867-3.133-7-7-7s-7 3.133-7 7 3.133 7 7 7a6.977 6.977 0 0 0 4.875-1.975l.15-.15Z" fill="#000"/>
</svg><svg fill="none" viewBox="0 0 24 24" id="user" xmlns="http://www.w3.org/2000/svg">
    <path d="M18.559 19.549a7.003 7.003 0 0 0-13.118 0m13.118 0A9.976 9.976 0 0 0 22 12c0-5.523-4.477-10-10-10S2 6.477 2 12a9.977 9.977 0 0 0 3.441 7.549m13.118 0A9.961 9.961 0 0 1 12 22a9.961 9.961 0 0 1-6.559-2.451M15 9a3 3 0 1 1-6 0 3 3 0 0 1 6 0Z" stroke="#141718" stroke-width="1.5" stroke-linejoin="round"/>
</svg><svg fill="none" viewBox="0 0 24 24" id="user-star-line" xmlns="http://www.w3.org/2000/svg">
    <path d="M12 14v2a6 6 0 0 0-6 6H4a8 8 0 0 1 8-8Zm0-1c-3.315 0-6-2.685-6-6s2.685-6 6-6 6 2.685 6 6-2.685 6-6 6Zm0-2c2.21 0 4-1.79 4-4s-1.79-4-4-4-4 1.79-4 4 1.79 4 4 4Zm6 10.5-2.939 1.545.561-3.273-2.377-2.317 3.286-.477L18 14l1.47 2.977 3.285.478-2.377 2.318.56 3.272L18 21.5Z" fill="#000"/>
</svg><svg viewBox="0 0 497 497" id="website" xmlns="http://www.w3.org/2000/svg">
    <path d="M497 128.5v312c0 11.046-8.954 20-20 20H20c-11.046 0-20-8.954-20-20v-312z" fill="#faf8f8"/>
    <path d="M290.498 294.5c0-23.196-18.804-42-42-42a41.823 41.823 0 0 0-19.482 4.782c-13.386 7.021-19.327 21.053-19.327 37.218 0 23.196 15.613 36.457 38.809 36.457 16.214 0 30.282-3.645 37.282-17.099a41.814 41.814 0 0 0 4.718-19.358z" fill="#dc4955"/>
    <path d="M286.468 312.47c-6.73 14.21-21.2 24.03-37.97 24.03-23.2 0-42-18.8-42-42 0-16.77 9.82-31.24 24.03-37.97-2.59 5.45-4.03 11.54-4.03 17.97 0 23.2 18.8 42 42 42 6.43 0 12.52-1.44 17.97-4.03z" fill="#d82f3c"/>
    <path d="M429.496 294.5c0-23.196-18.804-42-42-42a41.823 41.823 0 0 0-19.482 4.782c-13.386 7.021-19.327 21.053-19.327 37.218 0 23.196 15.613 36.457 38.809 36.457 16.214 0 30.282-3.645 37.282-17.099a41.814 41.814 0 0 0 4.718-19.358z" fill="#b7e546"/>
    <path d="M425.466 312.47c-6.73 14.21-21.2 24.03-37.97 24.03-23.2 0-42-18.8-42-42 0-16.77 9.82-31.24 24.03-37.97-2.59 5.45-4.03 11.54-4.03 17.97 0 23.2 18.8 42 42 42 6.43 0 12.52-1.44 17.97-4.03z" fill="#abd641"/>
    <path d="M497 148.5v-20l-276.011-12.798L0 128.5v312c0 11.046 8.954 20 20 20h15c-8.28 0-15-6.72-15-15v-291a6 6 0 0 1 6-6z" fill="#f0e9e6"/>
    <path d="M497 56.5V129H0V56.5c0-11.046 8.954-20 20-20h457c11.046 0 20 8.954 20 20z" fill="#5d748a"/>
    <g fill="#3f597d">
        <path d="M227.758 108.5c-8.255 0-14.947-6.716-14.947-15s6.692-15 14.947-15h208.315c8.255 0 14.947 6.716 14.947 15s-6.692 15-14.947 15z"/>
        <ellipse cx="160.869" cy="93.5" rx="14.947" ry="15"/>
        <path d="m171.361 104.184 12.874-12.869-13.139 1.179zM150.592 82.608l12.562-12.516-2.693 10.408z"/>
        <ellipse cx="98.034" cy="93.5" rx="14.947" ry="15"/>
        <path d="m108.553 104.157 12.382-12.499-12.674.836zM87.757 82.608l12.371-12.459L97.626 80.5z"/>
        <ellipse cx="32.947" cy="93.5" rx="14.947" ry="15"/>
        <path d="M43.769 103.846 56.49 90.66l-13.139 1.381zM22.67 82.608 34.292 70.57l-1.753 9.93z"/>
    </g>
    <ellipse cx="173.849" cy="80.5" fill="#b7e546" rx="14.947" ry="15"/>
    <path d="m217.514 82.577 12.971-12.991-3.025 14.276zM446.83 103.915l13.149-13.179-10.185 3.381z" fill="#3f597d"/>
    <ellipse cx="110.946" cy="80.5" fill="#ffbf54" rx="14.947" ry="15"/>
    <ellipse cx="45.495" cy="80.5" fill="#dc4955" rx="14.947" ry="15"/>
    <path d="M240.737 95.5c-8.255 0-14.947-6.716-14.947-15s6.692-15 14.947-15h208.315c8.255 0 14.947 6.716 14.947 15s-6.692 15-14.947 15z" fill="#faf8f8"/>
    <path d="m135.893 215 226.628 2c5.523 0 10-4.477 10-10l3.479-7v-30c0-5.523-4.477-10-10-10H142l-6.107 5c-5.523 0-10 4.477-10 10v30c0 5.523 4.477 10 10 10z" fill="#aad8de"/>
    <path d="M376 200v10c0 5.523-4.477 10-10 10H132c-5.523 0-10-4.477-10-10v-40c0-5.523 4.477-10 10-10h10v33a7 7 0 0 0 7 7z" fill="#94ccd4"/>
    <path d="M151.5 294.5c0-23.196-18.804-42-42-42a41.823 41.823 0 0 0-19.482 4.782c-13.386 7.021-19.327 21.053-19.327 37.218 0 23.196 15.613 36.457 38.809 36.457 16.214 0 30.282-3.645 37.282-17.099A41.814 41.814 0 0 0 151.5 294.5z" fill="#ffbf54"/>
    <path d="M147.47 312.47c-6.73 14.21-21.2 24.03-37.97 24.03-23.2 0-42-18.8-42-42 0-16.77 9.82-31.24 24.03-37.97-2.59 5.45-4.03 11.54-4.03 17.97 0 23.2 18.8 42 42 42 6.43 0 12.52-1.44 17.97-4.03z" fill="#ffa442"/>
    <path d="M149.5 374h-70a7.5 7.5 0 0 1 0-15h70a7.5 7.5 0 0 1 0 15zM149.5 404h-80a7.5 7.5 0 0 1 0-15h80a7.5 7.5 0 0 1 0 15zM149.5 434h-80a7.5 7.5 0 0 1 0-15h80a7.5 7.5 0 0 1 0 15zM288.5 374h-70a7.5 7.5 0 0 1 0-15h70c4.143 0 7.5 3.358 7.5 7.5s-3.357 7.5-7.5 7.5zM288.5 404h-80a7.5 7.5 0 0 1 0-15h80c4.143 0 7.5 3.358 7.5 7.5s-3.357 7.5-7.5 7.5zM288.5 434h-80a7.5 7.5 0 0 1 0-15h80c4.143 0 7.5 3.358 7.5 7.5s-3.357 7.5-7.5 7.5zM427.5 374h-70c-4.143 0-7.5-3.358-7.5-7.5s3.357-7.5 7.5-7.5h70c4.143 0 7.5 3.358 7.5 7.5s-3.357 7.5-7.5 7.5zM427.5 404h-80c-4.143 0-7.5-3.358-7.5-7.5s3.357-7.5 7.5-7.5h80c4.143 0 7.5 3.358 7.5 7.5s-3.357 7.5-7.5 7.5zM427.5 434h-80c-4.143 0-7.5-3.358-7.5-7.5s3.357-7.5 7.5-7.5h80c4.143 0 7.5 3.358 7.5 7.5s-3.357 7.5-7.5 7.5z" fill="#f0e9e6"/>
</svg></svg>