<svg width="203" height="23" viewBox="0 0 203 23" fill="none" xmlns="http://www.w3.org/2000/svg">
<path d="M0 20.4H20V0.4H0V20.4ZM37.7241 5H40.9641V19H37.7241V5ZM31.3641 19H28.1241V5H31.3641V19ZM37.9641 13.26H31.1241V10.52H37.9641V13.26ZM47.6564 10.64H54.3964V13.16H47.6564V10.64ZM47.8964 16.4H55.5164V19H44.6764V5H55.2564V7.6H47.8964V16.4ZM61.8377 19V13.28L62.5777 15.24L56.4177 5H59.8577L64.5777 12.86H62.5977L67.3377 5H70.5177L64.3577 15.24L65.0777 13.28V19H61.8377ZM70.7516 22.08L72.0716 17.28L72.5116 19.08C71.9382 19.08 71.4649 18.9133 71.0916 18.58C70.7316 18.2467 70.5516 17.7867 70.5516 17.2C70.5516 16.6133 70.7382 16.1467 71.1116 15.8C71.4849 15.4533 71.9449 15.28 72.4916 15.28C73.0516 15.28 73.5116 15.46 73.8716 15.82C74.2316 16.1667 74.4116 16.6267 74.4116 17.2C74.4116 17.3733 74.3982 17.5467 74.3716 17.72C74.3449 17.88 74.2916 18.08 74.2116 18.32C74.1449 18.5467 74.0316 18.84 73.8716 19.2L72.7316 22.08H70.7516ZM83.21 19V5H86.45V19H83.21ZM94.3966 19L100.637 5H103.837L110.097 19H106.697L101.577 6.64H102.857L97.7166 19H94.3966ZM97.5166 16L98.3766 13.54H105.577L106.457 16H97.5166ZM111.949 19V5H114.629L120.589 14.88H119.169L125.029 5H127.689L127.729 19H124.689L124.669 9.66H125.229L120.549 17.52H119.089L114.309 9.66H114.989V19H111.949ZM140.495 10.64H147.235V13.16H140.495V10.64ZM140.735 16.4H148.355V19H137.515V5H148.095V7.6H140.735V16.4ZM151.333 19V5H157.393C158.646 5 159.726 5.20667 160.633 5.62C161.539 6.02 162.239 6.6 162.733 7.36C163.226 8.12 163.473 9.02667 163.473 10.08C163.473 11.12 163.226 12.02 162.733 12.78C162.239 13.5267 161.539 14.1 160.633 14.5C159.726 14.9 158.646 15.1 157.393 15.1H153.133L154.573 13.68V19H151.333ZM160.233 19L156.733 13.92H160.193L163.733 19H160.233ZM154.573 14.04L153.133 12.52H157.213C158.213 12.52 158.959 12.3067 159.453 11.88C159.946 11.44 160.193 10.84 160.193 10.08C160.193 9.30667 159.946 8.70667 159.453 8.28C158.959 7.85333 158.213 7.64 157.213 7.64H153.133L154.573 6.1V14.04ZM166.44 19V5H169.68V19H166.44ZM180.102 19.24C179.022 19.24 178.016 19.0667 177.082 18.72C176.162 18.36 175.362 17.8533 174.682 17.2C174.002 16.5467 173.469 15.78 173.082 14.9C172.709 14.02 172.522 13.0533 172.522 12C172.522 10.9467 172.709 9.98 173.082 9.1C173.469 8.22 174.002 7.45333 174.682 6.8C175.376 6.14667 176.182 5.64667 177.102 5.3C178.022 4.94 179.029 4.76 180.122 4.76C181.336 4.76 182.429 4.97333 183.402 5.4C184.389 5.81333 185.216 6.42667 185.882 7.24L183.802 9.16C183.322 8.61333 182.789 8.20667 182.202 7.94C181.616 7.66 180.976 7.52 180.282 7.52C179.629 7.52 179.029 7.62667 178.482 7.84C177.936 8.05333 177.462 8.36 177.062 8.76C176.662 9.16 176.349 9.63333 176.122 10.18C175.909 10.7267 175.802 11.3333 175.802 12C175.802 12.6667 175.909 13.2733 176.122 13.82C176.349 14.3667 176.662 14.84 177.062 15.24C177.462 15.64 177.936 15.9467 178.482 16.16C179.029 16.3733 179.629 16.48 180.282 16.48C180.976 16.48 181.616 16.3467 182.202 16.08C182.789 15.8 183.322 15.38 183.802 14.82L185.882 16.74C185.216 17.5533 184.389 18.1733 183.402 18.6C182.429 19.0267 181.329 19.24 180.102 19.24ZM186.376 19L192.616 5H195.816L202.076 19H198.676L193.556 6.64H194.836L189.696 19H186.376ZM189.496 16L190.356 13.54H197.556L198.436 16H189.496Z" fill="#FEFAEE"/>
</svg>
